<svg width="197" height="48" viewBox="0 0 197 48" fill="none" xmlns="http://www.w3.org/2000/svg">
    <path d="M26.4486 8.21989L28.3001 6.39643C31.9358 2.81563 37.8548 2.727 41.5115 6.28717C42.8971 7.63918 43.8179 9.38471 44.1445 11.2786C44.4711 13.1724 44.1871 15.1195 43.3325 16.8462C42.9225 17.6711 42.7845 18.6014 42.9373 19.5073C43.0904 20.4133 43.5267 21.2495 44.1857 21.8993C45.3975 20.7031 46.3578 19.2835 47.0123 17.7216C47.6667 16.1597 48.0024 14.4862 48 12.7965C47.9974 11.1069 47.6572 9.43427 46.9982 7.87424C46.3392 6.31418 45.3746 4.89728 44.1595 3.7045C39.0463 -1.30304 30.7467 -1.20339 25.6478 3.81821L8.00046 21.1984L6.54969 19.7696C2.8523 16.128 2.82873 10.1756 6.59135 6.59878C7.98411 5.27888 9.75851 4.41726 11.6696 4.13285C13.5808 3.84844 15.5344 4.15526 17.261 5.01095C18.049 5.40868 18.9445 5.55096 19.8196 5.41748C20.6946 5.28399 21.5045 4.88157 22.1335 4.26769L22.1785 4.22361C22.1925 4.20992 22.2035 4.19362 22.2111 4.17566C22.2187 4.15772 22.2226 4.13847 22.2226 4.11904C22.2226 4.0996 22.2187 4.08035 22.2111 4.06241C22.2035 4.04448 22.1925 4.02818 22.1785 4.01446C19.7495 1.68235 16.4947 0.372413 13.1026 0.361822C9.71046 0.351234 6.4472 1.64082 4.00334 3.95772C-1.261 8.96292 -1.24219 17.2861 3.93192 22.382L21.574 39.7575L19.7 41.6033C16.0642 45.1841 10.145 45.2727 6.48851 41.7125C5.10294 40.3606 4.18218 38.615 3.85553 36.7212C3.5289 34.8274 3.81277 32.8803 4.66731 31.1535C5.07728 30.3286 5.21545 29.3983 5.06254 28.4925C4.90961 27.5865 4.47321 26.7502 3.81432 26.1005C2.60264 27.2967 1.64213 28.7162 0.987658 30.278C0.333185 31.84 -0.00241875 33.5134 1.31224e-05 35.2032C0.00244501 36.8928 0.342864 38.5655 1.00183 40.1254C1.6608 41.6856 2.6254 43.1025 3.84051 44.2952C8.95344 49.303 17.2534 49.2036 22.3522 44.1817L40.0224 26.7783L41.4787 28.2125C45.1144 31.7934 45.2044 37.6229 41.5896 41.2241C40.2169 42.589 38.4445 43.4957 36.5217 43.8176C34.5988 44.1393 32.6219 43.8596 30.8686 43.0178C30.0308 42.6138 29.0857 42.4776 28.1656 42.6286C27.2454 42.7794 26.396 43.2096 25.7363 43.8591C26.951 45.0525 28.3922 45.9986 29.978 46.6432C31.5639 47.2877 33.263 47.6183 34.9788 47.616C36.6943 47.6134 38.3926 47.2781 39.9765 46.6291C41.5606 45.9801 42.9992 45.03 44.2102 43.8333C49.2948 38.7976 49.1936 30.6231 44.095 25.6015L26.4486 8.21989ZM24.2084 37.1617L10.6356 23.794L23.8132 10.8157L37.3861 24.1834L24.2084 37.1617Z"
          fill="#059669"/>
    <mask id="path-2-outside-1_2_6" maskUnits="userSpaceOnUse" x="56" y="9.5" width="141" height="28" fill="black">
        <rect fill="white" x="56" y="9.5" width="141" height="28"/>
        <path d="M79.4091 23.8636C79.4091 26.4015 78.928 28.5606 77.9659 30.3409C77.0114 32.1212 75.7083 33.4811 74.0568 34.4205C72.4129 35.3523 70.5644 35.8182 68.5114 35.8182C66.4432 35.8182 64.5871 35.3485 62.9432 34.4091C61.2992 33.4697 60 32.1098 59.0455 30.3295C58.0909 28.5492 57.6136 26.3939 57.6136 23.8636C57.6136 21.3258 58.0909 19.1667 59.0455 17.3864C60 15.6061 61.2992 14.25 62.9432 13.3182C64.5871 12.3788 66.4432 11.9091 68.5114 11.9091C70.5644 11.9091 72.4129 12.3788 74.0568 13.3182C75.7083 14.25 77.0114 15.6061 77.9659 17.3864C78.928 19.1667 79.4091 21.3258 79.4091 23.8636ZM74.4205 23.8636C74.4205 22.2197 74.1742 20.8333 73.6818 19.7045C73.197 18.5758 72.5114 17.7197 71.625 17.1364C70.7386 16.553 69.7008 16.2614 68.5114 16.2614C67.322 16.2614 66.2841 16.553 65.3977 17.1364C64.5114 17.7197 63.822 18.5758 63.3295 19.7045C62.8447 20.8333 62.6023 22.2197 62.6023 23.8636C62.6023 25.5076 62.8447 26.8939 63.3295 28.0227C63.822 29.1515 64.5114 30.0076 65.3977 30.5909C66.2841 31.1742 67.322 31.4659 68.5114 31.4659C69.7008 31.4659 70.7386 31.1742 71.625 30.5909C72.5114 30.0076 73.197 29.1515 73.6818 28.0227C74.1742 26.8939 74.4205 25.5076 74.4205 23.8636ZM82.9631 35.5V18.0455H87.5767V21.125H87.7812C88.1449 20.1023 88.7509 19.2955 89.5994 18.7045C90.4479 18.1136 91.4631 17.8182 92.6449 17.8182C93.8419 17.8182 94.8608 18.1174 95.7017 18.7159C96.5426 19.3068 97.1032 20.1098 97.3835 21.125H97.5653C97.9214 20.125 98.5653 19.3258 99.4972 18.7273C100.437 18.1212 101.546 17.8182 102.827 17.8182C104.455 17.8182 105.777 18.3371 106.793 19.375C107.815 20.4053 108.327 21.8674 108.327 23.7614V35.5H103.497V24.7159C103.497 23.7462 103.24 23.0189 102.724 22.5341C102.209 22.0492 101.565 21.8068 100.793 21.8068C99.9138 21.8068 99.2282 22.0871 98.7358 22.6477C98.2434 23.2008 97.9972 23.9318 97.9972 24.8409V35.5H93.304V24.6136C93.304 23.7576 93.0578 23.0758 92.5653 22.5682C92.0805 22.0606 91.4403 21.8068 90.6449 21.8068C90.107 21.8068 89.6222 21.9432 89.1903 22.2159C88.7661 22.4811 88.429 22.8561 88.179 23.3409C87.929 23.8182 87.804 24.3788 87.804 25.0227V35.5H82.9631ZM116.991 25.4091V35.5H112.151V18.0455H116.764V21.125H116.969C117.355 20.1098 118.003 19.3068 118.912 18.7159C119.821 18.1174 120.923 17.8182 122.219 17.8182C123.431 17.8182 124.488 18.0833 125.389 18.6136C126.291 19.1439 126.991 19.9015 127.491 20.8864C127.991 21.8636 128.241 23.0303 128.241 24.3864V35.5H123.401V25.25C123.408 24.1818 123.135 23.3485 122.582 22.75C122.029 22.1439 121.268 21.8409 120.298 21.8409C119.647 21.8409 119.071 21.9811 118.571 22.2614C118.079 22.5417 117.692 22.9508 117.412 23.4886C117.139 24.0189 116.999 24.6591 116.991 25.4091ZM132.057 35.5V18.0455H136.898V35.5H132.057ZM134.489 15.7955C133.769 15.7955 133.152 15.5568 132.636 15.0795C132.129 14.5947 131.875 14.0152 131.875 13.3409C131.875 12.6742 132.129 12.1023 132.636 11.625C133.152 11.1402 133.769 10.8977 134.489 10.8977C135.208 10.8977 135.822 11.1402 136.33 11.625C136.845 12.1023 137.102 12.6742 137.102 13.3409C137.102 14.0152 136.845 14.5947 136.33 15.0795C135.822 15.5568 135.208 15.7955 134.489 15.7955ZM155.298 23.0227L150.866 23.2955C150.791 22.9167 150.628 22.5758 150.378 22.2727C150.128 21.9621 149.798 21.7159 149.389 21.5341C148.988 21.3447 148.507 21.25 147.946 21.25C147.196 21.25 146.563 21.4091 146.048 21.7273C145.533 22.0379 145.276 22.4545 145.276 22.9773C145.276 23.3939 145.442 23.7462 145.776 24.0341C146.109 24.322 146.681 24.553 147.491 24.7273L150.651 25.3636C152.348 25.7121 153.613 26.2727 154.446 27.0455C155.279 27.8182 155.696 28.8333 155.696 30.0909C155.696 31.2348 155.359 32.2386 154.685 33.1023C154.018 33.9659 153.101 34.6402 151.935 35.125C150.776 35.6023 149.438 35.8409 147.923 35.8409C145.613 35.8409 143.772 35.3598 142.401 34.3977C141.037 33.428 140.238 32.1098 140.003 30.4432L144.764 30.1932C144.908 30.8977 145.257 31.4356 145.81 31.8068C146.363 32.1705 147.071 32.3523 147.935 32.3523C148.783 32.3523 149.465 32.1894 149.98 31.8636C150.503 31.5303 150.768 31.1023 150.776 30.5795C150.768 30.1402 150.582 29.7803 150.219 29.5C149.855 29.2121 149.295 28.9924 148.537 28.8409L145.514 28.2386C143.81 27.8977 142.541 27.3068 141.707 26.4659C140.882 25.625 140.469 24.553 140.469 23.25C140.469 22.1288 140.772 21.1629 141.378 20.3523C141.991 19.5417 142.851 18.9167 143.957 18.4773C145.071 18.0379 146.374 17.8182 147.866 17.8182C150.071 17.8182 151.806 18.2841 153.071 19.2159C154.344 20.1477 155.086 21.4167 155.298 23.0227ZM165.176 35.7841C163.85 35.7841 162.65 35.4432 161.574 34.7614C160.506 34.072 159.657 33.0606 159.028 31.7273C158.407 30.3864 158.097 28.7424 158.097 26.7955C158.097 24.7955 158.419 23.1326 159.062 21.8068C159.706 20.4735 160.563 19.4773 161.631 18.8182C162.706 18.1515 163.884 17.8182 165.165 17.8182C166.142 17.8182 166.956 17.9848 167.608 18.3182C168.267 18.6439 168.797 19.053 169.199 19.5455C169.608 20.0303 169.919 20.5076 170.131 20.9773H170.278V12.2273H175.108V35.5H170.335V32.7045H170.131C169.903 33.1894 169.581 33.6705 169.165 34.1477C168.756 34.6174 168.222 35.0076 167.562 35.3182C166.911 35.6288 166.116 35.7841 165.176 35.7841ZM166.71 31.9318C167.491 31.9318 168.15 31.7197 168.688 31.2955C169.233 30.8636 169.65 30.2614 169.938 29.4886C170.233 28.7159 170.381 27.8106 170.381 26.7727C170.381 25.7348 170.237 24.8333 169.949 24.0682C169.661 23.303 169.244 22.7121 168.699 22.2955C168.153 21.8788 167.491 21.6705 166.71 21.6705C165.915 21.6705 165.244 21.8864 164.699 22.3182C164.153 22.75 163.741 23.3485 163.46 24.1136C163.18 24.8788 163.04 25.7652 163.04 26.7727C163.04 27.7879 163.18 28.6856 163.46 29.4659C163.748 30.2386 164.161 30.8447 164.699 31.2841C165.244 31.7159 165.915 31.9318 166.71 31.9318ZM186.974 35.8409C185.209 35.8409 183.683 35.4659 182.395 34.7159C181.115 33.9583 180.126 32.9053 179.429 31.5568C178.732 30.2008 178.384 28.6288 178.384 26.8409C178.384 25.0379 178.732 23.4621 179.429 22.1136C180.126 20.7576 181.115 19.7045 182.395 18.9545C183.683 18.197 185.209 17.8182 186.974 17.8182C188.74 17.8182 190.262 18.197 191.543 18.9545C192.83 19.7045 193.823 20.7576 194.52 22.1136C195.217 23.4621 195.565 25.0379 195.565 26.8409C195.565 28.6288 195.217 30.2008 194.52 31.5568C193.823 32.9053 192.83 33.9583 191.543 34.7159C190.262 35.4659 188.74 35.8409 186.974 35.8409ZM186.997 32.0909C187.8 32.0909 188.471 31.8636 189.009 31.4091C189.546 30.947 189.952 30.3182 190.224 29.5227C190.505 28.7273 190.645 27.822 190.645 26.8068C190.645 25.7917 190.505 24.8864 190.224 24.0909C189.952 23.2955 189.546 22.6667 189.009 22.2045C188.471 21.7424 187.8 21.5114 186.997 21.5114C186.187 21.5114 185.505 21.7424 184.952 22.2045C184.406 22.6667 183.993 23.2955 183.713 24.0909C183.44 24.8864 183.304 25.7917 183.304 26.8068C183.304 27.822 183.44 28.7273 183.713 29.5227C183.993 30.3182 184.406 30.947 184.952 31.4091C185.505 31.8636 186.187 32.0909 186.997 32.0909Z"/>
    </mask>
    <path d="M79.4091 23.8636C79.4091 26.4015 78.928 28.5606 77.9659 30.3409C77.0114 32.1212 75.7083 33.4811 74.0568 34.4205C72.4129 35.3523 70.5644 35.8182 68.5114 35.8182C66.4432 35.8182 64.5871 35.3485 62.9432 34.4091C61.2992 33.4697 60 32.1098 59.0455 30.3295C58.0909 28.5492 57.6136 26.3939 57.6136 23.8636C57.6136 21.3258 58.0909 19.1667 59.0455 17.3864C60 15.6061 61.2992 14.25 62.9432 13.3182C64.5871 12.3788 66.4432 11.9091 68.5114 11.9091C70.5644 11.9091 72.4129 12.3788 74.0568 13.3182C75.7083 14.25 77.0114 15.6061 77.9659 17.3864C78.928 19.1667 79.4091 21.3258 79.4091 23.8636ZM74.4205 23.8636C74.4205 22.2197 74.1742 20.8333 73.6818 19.7045C73.197 18.5758 72.5114 17.7197 71.625 17.1364C70.7386 16.553 69.7008 16.2614 68.5114 16.2614C67.322 16.2614 66.2841 16.553 65.3977 17.1364C64.5114 17.7197 63.822 18.5758 63.3295 19.7045C62.8447 20.8333 62.6023 22.2197 62.6023 23.8636C62.6023 25.5076 62.8447 26.8939 63.3295 28.0227C63.822 29.1515 64.5114 30.0076 65.3977 30.5909C66.2841 31.1742 67.322 31.4659 68.5114 31.4659C69.7008 31.4659 70.7386 31.1742 71.625 30.5909C72.5114 30.0076 73.197 29.1515 73.6818 28.0227C74.1742 26.8939 74.4205 25.5076 74.4205 23.8636ZM82.9631 35.5V18.0455H87.5767V21.125H87.7812C88.1449 20.1023 88.7509 19.2955 89.5994 18.7045C90.4479 18.1136 91.4631 17.8182 92.6449 17.8182C93.8419 17.8182 94.8608 18.1174 95.7017 18.7159C96.5426 19.3068 97.1032 20.1098 97.3835 21.125H97.5653C97.9214 20.125 98.5653 19.3258 99.4972 18.7273C100.437 18.1212 101.546 17.8182 102.827 17.8182C104.455 17.8182 105.777 18.3371 106.793 19.375C107.815 20.4053 108.327 21.8674 108.327 23.7614V35.5H103.497V24.7159C103.497 23.7462 103.24 23.0189 102.724 22.5341C102.209 22.0492 101.565 21.8068 100.793 21.8068C99.9138 21.8068 99.2282 22.0871 98.7358 22.6477C98.2434 23.2008 97.9972 23.9318 97.9972 24.8409V35.5H93.304V24.6136C93.304 23.7576 93.0578 23.0758 92.5653 22.5682C92.0805 22.0606 91.4403 21.8068 90.6449 21.8068C90.107 21.8068 89.6222 21.9432 89.1903 22.2159C88.7661 22.4811 88.429 22.8561 88.179 23.3409C87.929 23.8182 87.804 24.3788 87.804 25.0227V35.5H82.9631ZM116.991 25.4091V35.5H112.151V18.0455H116.764V21.125H116.969C117.355 20.1098 118.003 19.3068 118.912 18.7159C119.821 18.1174 120.923 17.8182 122.219 17.8182C123.431 17.8182 124.488 18.0833 125.389 18.6136C126.291 19.1439 126.991 19.9015 127.491 20.8864C127.991 21.8636 128.241 23.0303 128.241 24.3864V35.5H123.401V25.25C123.408 24.1818 123.135 23.3485 122.582 22.75C122.029 22.1439 121.268 21.8409 120.298 21.8409C119.647 21.8409 119.071 21.9811 118.571 22.2614C118.079 22.5417 117.692 22.9508 117.412 23.4886C117.139 24.0189 116.999 24.6591 116.991 25.4091ZM132.057 35.5V18.0455H136.898V35.5H132.057ZM134.489 15.7955C133.769 15.7955 133.152 15.5568 132.636 15.0795C132.129 14.5947 131.875 14.0152 131.875 13.3409C131.875 12.6742 132.129 12.1023 132.636 11.625C133.152 11.1402 133.769 10.8977 134.489 10.8977C135.208 10.8977 135.822 11.1402 136.33 11.625C136.845 12.1023 137.102 12.6742 137.102 13.3409C137.102 14.0152 136.845 14.5947 136.33 15.0795C135.822 15.5568 135.208 15.7955 134.489 15.7955ZM155.298 23.0227L150.866 23.2955C150.791 22.9167 150.628 22.5758 150.378 22.2727C150.128 21.9621 149.798 21.7159 149.389 21.5341C148.988 21.3447 148.507 21.25 147.946 21.25C147.196 21.25 146.563 21.4091 146.048 21.7273C145.533 22.0379 145.276 22.4545 145.276 22.9773C145.276 23.3939 145.442 23.7462 145.776 24.0341C146.109 24.322 146.681 24.553 147.491 24.7273L150.651 25.3636C152.348 25.7121 153.613 26.2727 154.446 27.0455C155.279 27.8182 155.696 28.8333 155.696 30.0909C155.696 31.2348 155.359 32.2386 154.685 33.1023C154.018 33.9659 153.101 34.6402 151.935 35.125C150.776 35.6023 149.438 35.8409 147.923 35.8409C145.613 35.8409 143.772 35.3598 142.401 34.3977C141.037 33.428 140.238 32.1098 140.003 30.4432L144.764 30.1932C144.908 30.8977 145.257 31.4356 145.81 31.8068C146.363 32.1705 147.071 32.3523 147.935 32.3523C148.783 32.3523 149.465 32.1894 149.98 31.8636C150.503 31.5303 150.768 31.1023 150.776 30.5795C150.768 30.1402 150.582 29.7803 150.219 29.5C149.855 29.2121 149.295 28.9924 148.537 28.8409L145.514 28.2386C143.81 27.8977 142.541 27.3068 141.707 26.4659C140.882 25.625 140.469 24.553 140.469 23.25C140.469 22.1288 140.772 21.1629 141.378 20.3523C141.991 19.5417 142.851 18.9167 143.957 18.4773C145.071 18.0379 146.374 17.8182 147.866 17.8182C150.071 17.8182 151.806 18.2841 153.071 19.2159C154.344 20.1477 155.086 21.4167 155.298 23.0227ZM165.176 35.7841C163.85 35.7841 162.65 35.4432 161.574 34.7614C160.506 34.072 159.657 33.0606 159.028 31.7273C158.407 30.3864 158.097 28.7424 158.097 26.7955C158.097 24.7955 158.419 23.1326 159.062 21.8068C159.706 20.4735 160.563 19.4773 161.631 18.8182C162.706 18.1515 163.884 17.8182 165.165 17.8182C166.142 17.8182 166.956 17.9848 167.608 18.3182C168.267 18.6439 168.797 19.053 169.199 19.5455C169.608 20.0303 169.919 20.5076 170.131 20.9773H170.278V12.2273H175.108V35.5H170.335V32.7045H170.131C169.903 33.1894 169.581 33.6705 169.165 34.1477C168.756 34.6174 168.222 35.0076 167.562 35.3182C166.911 35.6288 166.116 35.7841 165.176 35.7841ZM166.71 31.9318C167.491 31.9318 168.15 31.7197 168.688 31.2955C169.233 30.8636 169.65 30.2614 169.938 29.4886C170.233 28.7159 170.381 27.8106 170.381 26.7727C170.381 25.7348 170.237 24.8333 169.949 24.0682C169.661 23.303 169.244 22.7121 168.699 22.2955C168.153 21.8788 167.491 21.6705 166.71 21.6705C165.915 21.6705 165.244 21.8864 164.699 22.3182C164.153 22.75 163.741 23.3485 163.46 24.1136C163.18 24.8788 163.04 25.7652 163.04 26.7727C163.04 27.7879 163.18 28.6856 163.46 29.4659C163.748 30.2386 164.161 30.8447 164.699 31.2841C165.244 31.7159 165.915 31.9318 166.71 31.9318ZM186.974 35.8409C185.209 35.8409 183.683 35.4659 182.395 34.7159C181.115 33.9583 180.126 32.9053 179.429 31.5568C178.732 30.2008 178.384 28.6288 178.384 26.8409C178.384 25.0379 178.732 23.4621 179.429 22.1136C180.126 20.7576 181.115 19.7045 182.395 18.9545C183.683 18.197 185.209 17.8182 186.974 17.8182C188.74 17.8182 190.262 18.197 191.543 18.9545C192.83 19.7045 193.823 20.7576 194.52 22.1136C195.217 23.4621 195.565 25.0379 195.565 26.8409C195.565 28.6288 195.217 30.2008 194.52 31.5568C193.823 32.9053 192.83 33.9583 191.543 34.7159C190.262 35.4659 188.74 35.8409 186.974 35.8409ZM186.997 32.0909C187.8 32.0909 188.471 31.8636 189.009 31.4091C189.546 30.947 189.952 30.3182 190.224 29.5227C190.505 28.7273 190.645 27.822 190.645 26.8068C190.645 25.7917 190.505 24.8864 190.224 24.0909C189.952 23.2955 189.546 22.6667 189.009 22.2045C188.471 21.7424 187.8 21.5114 186.997 21.5114C186.187 21.5114 185.505 21.7424 184.952 22.2045C184.406 22.6667 183.993 23.2955 183.713 24.0909C183.44 24.8864 183.304 25.7917 183.304 26.8068C183.304 27.822 183.44 28.7273 183.713 29.5227C183.993 30.3182 184.406 30.947 184.952 31.4091C185.505 31.8636 186.187 32.0909 186.997 32.0909Z"
          fill="#FAFAFA"/>
    <path d="M77.9659 30.3409L77.0862 29.8655L77.0846 29.8684L77.9659 30.3409ZM74.0568 34.4205L74.5499 35.2904L74.5512 35.2897L74.0568 34.4205ZM62.9432 34.4091L63.4393 33.5408L62.9432 34.4091ZM59.0455 30.3295L58.1641 30.8021L58.1641 30.8021L59.0455 30.3295ZM59.0455 17.3864L59.9268 17.8589L59.9268 17.8589L59.0455 17.3864ZM62.9432 13.3182L63.4363 14.1882L63.4393 14.1864L62.9432 13.3182ZM74.0568 13.3182L73.5607 14.1864L73.5654 14.1891L74.0568 13.3182ZM77.9659 17.3864L77.0846 17.8589L77.0862 17.8618L77.9659 17.3864ZM73.6818 19.7045L72.763 20.0992L72.7652 20.1044L73.6818 19.7045ZM71.625 17.1364L71.0753 17.9717L71.0753 17.9717L71.625 17.1364ZM65.3977 17.1364L65.9475 17.9717L65.9475 17.9717L65.3977 17.1364ZM63.3295 19.7045L62.413 19.3047L62.4107 19.3099L63.3295 19.7045ZM63.3295 28.0227L62.4107 28.4174L62.413 28.4226L63.3295 28.0227ZM65.3977 30.5909L65.9475 29.7556L65.9475 29.7556L65.3977 30.5909ZM71.625 30.5909L71.0753 29.7556L71.0753 29.7556L71.625 30.5909ZM73.6818 28.0227L72.7652 27.6229L72.763 27.6281L73.6818 28.0227ZM78.4091 23.8636C78.4091 26.2769 77.9518 28.2638 77.0862 29.8655L78.8457 30.8163C79.9043 28.8575 80.4091 26.5261 80.4091 23.8636H78.4091ZM77.0846 29.8684C76.2132 31.4936 75.0397 32.7109 73.5624 33.5512L74.5512 35.2897C76.377 34.2512 77.8095 32.7488 78.8472 30.8134L77.0846 29.8684ZM73.5637 33.5505C72.083 34.3898 70.4069 34.8182 68.5114 34.8182V36.8182C70.7219 36.8182 72.7428 36.3147 74.5499 35.2904L73.5637 33.5505ZM68.5114 34.8182C66.6007 34.8182 64.9184 34.3861 63.4393 33.5408L62.447 35.2773C64.2558 36.3109 66.2857 36.8182 68.5114 36.8182V34.8182ZM63.4393 33.5408C61.9694 32.7009 60.7988 31.4834 59.9268 29.857L58.1641 30.8021C59.2012 32.7363 60.6291 34.2385 62.447 35.2773L63.4393 33.5408ZM59.9268 29.857C59.0674 28.2542 58.6136 26.2699 58.6136 23.8636H56.6136C56.6136 26.518 57.1144 28.8443 58.1641 30.8021L59.9268 29.857ZM58.6136 23.8636C58.6136 21.4492 59.0676 19.4613 59.9268 17.8589L58.1641 16.9138C57.1142 18.872 56.6136 21.2023 56.6136 23.8636H58.6136ZM59.9268 17.8589C60.7985 16.2331 61.9681 15.0203 63.4363 14.1881L62.4501 12.4482C60.6303 13.4797 59.2015 14.979 58.1641 16.9138L59.9268 17.8589ZM63.4393 14.1864C64.9184 13.3412 66.6007 12.9091 68.5114 12.9091V10.9091C66.2857 10.9091 64.2558 11.4164 62.447 12.4499L63.4393 14.1864ZM68.5114 12.9091C70.4055 12.9091 72.0804 13.3406 73.5607 14.1864L74.553 12.4499C72.7453 11.417 70.7233 10.9091 68.5114 10.9091V12.9091ZM73.5654 14.1891C75.0409 15.0216 76.2135 16.2343 77.0846 17.8589L78.8472 16.9138C77.8092 14.9779 76.3758 13.4784 74.5482 12.4472L73.5654 14.1891ZM77.0862 17.8618C77.9518 19.4635 78.4091 21.4504 78.4091 23.8636H80.4091C80.4091 21.2012 79.9043 18.8698 78.8457 16.9109L77.0862 17.8618ZM75.4205 23.8636C75.4205 22.1258 75.161 20.5943 74.5984 19.3047L72.7652 20.1044C73.1875 21.0724 73.4205 22.3136 73.4205 23.8636H75.4205ZM74.6006 19.3099C74.051 18.0303 73.2492 17.0081 72.1747 16.301L71.0753 17.9717C71.7735 18.4313 72.3429 19.1212 72.763 20.0992L74.6006 19.3099ZM72.1747 16.301C71.1059 15.5976 69.8717 15.2614 68.5114 15.2614V17.2614C69.5298 17.2614 70.3714 17.5085 71.0753 17.9717L72.1747 16.301ZM68.5114 15.2614C67.151 15.2614 65.9169 15.5976 64.848 16.301L65.9475 17.9717C66.6513 17.5085 67.4929 17.2614 68.5114 17.2614V15.2614ZM64.848 16.301C63.775 17.0072 62.9702 18.0275 62.413 19.3047L64.2461 20.1044C64.6738 19.1241 65.2477 18.4322 65.9475 17.9717L64.848 16.301ZM62.4107 19.3099C61.8575 20.5979 61.6023 22.1274 61.6023 23.8636H63.6023C63.6023 22.312 63.8319 21.0688 64.2484 20.0992L62.4107 19.3099ZM61.6023 23.8636C61.6023 25.5999 61.8575 27.1294 62.4107 28.4174L64.2484 27.6281C63.8319 26.6585 63.6023 25.4153 63.6023 23.8636H61.6023ZM62.413 28.4226C62.9702 29.6998 63.775 30.7201 64.848 31.4262L65.9475 29.7556C65.2477 29.295 64.6738 28.6032 64.2461 27.6229L62.413 28.4226ZM64.848 31.4262C65.9169 32.1297 67.151 32.4659 68.5114 32.4659V30.4659C67.4929 30.4659 66.6513 30.2188 65.9475 29.7556L64.848 31.4262ZM68.5114 32.4659C69.8717 32.4659 71.1059 32.1297 72.1747 31.4262L71.0753 29.7556C70.3714 30.2188 69.5298 30.4659 68.5114 30.4659V32.4659ZM72.1747 31.4262C73.2492 30.7191 74.051 29.6969 74.6006 28.4174L72.763 27.6281C72.3429 28.6061 71.7735 29.296 71.0753 29.7556L72.1747 31.4262ZM74.5984 28.4226C75.161 27.133 75.4205 25.6015 75.4205 23.8636H73.4205C73.4205 25.4136 73.1875 26.6549 72.7652 27.6229L74.5984 28.4226ZM82.9631 35.5H81.9631V36.5H82.9631V35.5ZM82.9631 18.0455V17.0455H81.9631V18.0455H82.9631ZM87.5767 18.0455H88.5767V17.0455H87.5767V18.0455ZM87.5767 21.125H86.5767V22.125H87.5767V21.125ZM87.7812 21.125V22.125H88.487L88.7235 21.46L87.7812 21.125ZM89.5994 18.7045L89.0279 17.8839L89.0279 17.8839L89.5994 18.7045ZM95.7017 18.7159L95.1218 19.5306L95.1268 19.5341L95.7017 18.7159ZM97.3835 21.125L96.4196 21.3912L96.6222 22.125H97.3835V21.125ZM97.5653 21.125V22.125H98.2708L98.5074 21.4604L97.5653 21.125ZM99.4972 18.7273L100.038 19.5687L100.039 19.5676L99.4972 18.7273ZM106.793 19.375L106.078 20.0743L106.083 20.0795L106.793 19.375ZM108.327 35.5V36.5H109.327V35.5H108.327ZM103.497 35.5H102.497V36.5H103.497V35.5ZM102.724 22.5341L102.039 23.2623L102.039 23.2623L102.724 22.5341ZM98.7358 22.6477L99.4827 23.3127L99.4871 23.3077L98.7358 22.6477ZM97.9972 35.5V36.5H98.9972V35.5H97.9972ZM93.304 35.5H92.304V36.5H93.304V35.5ZM92.5653 22.5682L91.8422 23.2589L91.8476 23.2645L92.5653 22.5682ZM89.1903 22.2159L89.7203 23.0639L89.7243 23.0614L89.1903 22.2159ZM88.179 23.3409L89.0648 23.8049L89.0678 23.7992L88.179 23.3409ZM87.804 35.5V36.5H88.804V35.5H87.804ZM83.9631 35.5V18.0455H81.9631V35.5H83.9631ZM82.9631 19.0455H87.5767V17.0455H82.9631V19.0455ZM86.5767 18.0455V21.125H88.5767V18.0455H86.5767ZM87.5767 22.125H87.7812V20.125H87.5767V22.125ZM88.7235 21.46C89.0209 20.6235 89.5025 19.9907 90.1709 19.5252L89.0279 17.8839C87.9994 18.6002 87.2689 19.5811 86.839 20.79L88.7235 21.46ZM90.1709 19.5252C90.8285 19.0672 91.6372 18.8182 92.6449 18.8182V16.8182C91.289 16.8182 90.0673 17.1601 89.0279 17.8839L90.1709 19.5252ZM92.6449 18.8182C93.6683 18.8182 94.4762 19.0711 95.1219 19.5306L96.2816 17.9012C95.2454 17.1637 94.0154 16.8182 92.6449 16.8182V18.8182ZM95.1268 19.5341C95.7729 19.9881 96.1994 20.5935 96.4196 21.3912L98.3475 20.8588C98.0071 19.6261 97.3123 18.6255 96.2767 17.8977L95.1268 19.5341ZM97.3835 22.125H97.5653V20.125H97.3835V22.125ZM98.5074 21.4604C98.7859 20.6784 99.2833 20.0531 100.038 19.5687L98.9567 17.8859C97.8474 18.5984 97.0569 19.5716 96.6233 20.7896L98.5074 21.4604ZM100.039 19.5676C100.795 19.0803 101.71 18.8182 102.827 18.8182V16.8182C101.383 16.8182 100.079 17.1621 98.955 17.887L100.039 19.5676ZM102.827 18.8182C104.222 18.8182 105.274 19.253 106.078 20.0742L107.508 18.6758C106.28 17.4213 104.689 16.8182 102.827 16.8182V18.8182ZM106.083 20.0795C106.868 20.8705 107.327 22.0478 107.327 23.7614H109.327C109.327 21.6871 108.763 19.9401 107.502 18.6705L106.083 20.0795ZM107.327 23.7614V35.5H109.327V23.7614H107.327ZM108.327 34.5H103.497V36.5H108.327V34.5ZM104.497 35.5V24.7159H102.497V35.5H104.497ZM104.497 24.7159C104.497 23.576 104.191 22.5416 103.41 21.8059L102.039 23.2623C102.288 23.4963 102.497 23.9164 102.497 24.7159H104.497ZM103.41 21.8059C102.691 21.1296 101.794 20.8068 100.793 20.8068V22.8068C101.336 22.8068 101.727 22.9688 102.039 23.2623L103.41 21.8059ZM100.793 20.8068C99.6824 20.8068 98.701 21.1721 97.9845 21.9878L99.4871 23.3077C99.7555 23.0021 100.145 22.8068 100.793 22.8068V20.8068ZM97.989 21.9827C97.2985 22.7582 96.9972 23.7449 96.9972 24.8409H98.9972C98.9972 24.1187 99.1883 23.6433 99.4826 23.3127L97.989 21.9827ZM96.9972 24.8409V35.5H98.9972V24.8409H96.9972ZM97.9972 34.5H93.304V36.5H97.9972V34.5ZM94.304 35.5V24.6136H92.304V35.5H94.304ZM94.304 24.6136C94.304 23.5557 93.9933 22.604 93.2831 21.8719L91.8476 23.2645C92.1222 23.5475 92.304 23.9594 92.304 24.6136H94.304ZM93.2885 21.8774C92.589 21.1452 91.6736 20.8068 90.6449 20.8068V22.8068C91.2071 22.8068 91.572 22.976 91.8422 23.2589L93.2885 21.8774ZM90.6449 20.8068C89.9285 20.8068 89.2567 20.9913 88.6563 21.3704L89.7243 23.0614C89.9877 22.8951 90.2855 22.8068 90.6449 22.8068V20.8068ZM88.6603 21.3679C88.07 21.7369 87.6149 22.2529 87.2902 22.8826L89.0678 23.7992C89.2431 23.4592 89.4622 23.2253 89.7203 23.0639L88.6603 21.3679ZM87.2931 22.8769C86.9548 23.5228 86.804 24.2485 86.804 25.0227H88.804C88.804 24.509 88.9031 24.1136 89.0648 23.8049L87.2931 22.8769ZM86.804 25.0227V35.5H88.804V25.0227H86.804ZM87.804 34.5H82.9631V36.5H87.804V34.5ZM116.991 25.4091L115.991 25.399V25.4091H116.991ZM116.991 35.5V36.5H117.991V35.5H116.991ZM112.151 35.5H111.151V36.5H112.151V35.5ZM112.151 18.0455V17.0455H111.151V18.0455H112.151ZM116.764 18.0455H117.764V17.0455H116.764V18.0455ZM116.764 21.125H115.764V22.125H116.764V21.125ZM116.969 21.125V22.125H117.658L117.903 21.4807L116.969 21.125ZM118.912 18.7159L119.457 19.5544L119.462 19.5512L118.912 18.7159ZM125.389 18.6136L125.896 17.7517L125.389 18.6136ZM127.491 20.8864L126.6 21.3391L126.601 21.3418L127.491 20.8864ZM128.241 35.5V36.5H129.241V35.5H128.241ZM123.401 35.5H122.401V36.5H123.401V35.5ZM123.401 25.25L122.401 25.2429V25.25H123.401ZM122.582 22.75L121.844 23.4241L121.848 23.4287L122.582 22.75ZM118.571 22.2614L118.082 21.3891L118.076 21.3923L118.571 22.2614ZM117.412 23.4886L116.525 23.0265L116.523 23.0313L117.412 23.4886ZM115.991 25.4091V35.5H117.991V25.4091H115.991ZM116.991 34.5H112.151V36.5H116.991V34.5ZM113.151 35.5V18.0455H111.151V35.5H113.151ZM112.151 19.0455H116.764V17.0455H112.151V19.0455ZM115.764 18.0455V21.125H117.764V18.0455H115.764ZM116.764 22.125H116.969V20.125H116.764V22.125ZM117.903 21.4807C118.214 20.6633 118.726 20.0295 119.457 19.5544L118.367 17.8775C117.28 18.5841 116.496 19.5564 116.034 20.7693L117.903 21.4807ZM119.462 19.5512C120.179 19.0792 121.081 18.8182 122.219 18.8182V16.8182C120.766 16.8182 119.463 17.1557 118.362 17.8807L119.462 19.5512ZM122.219 18.8182C123.281 18.8182 124.157 19.0492 124.882 19.4756L125.896 17.7517C124.818 17.1175 123.58 16.8182 122.219 16.8182V18.8182ZM124.882 19.4756C125.61 19.9035 126.181 20.5146 126.6 21.3391L128.383 20.4337C127.802 19.2885 126.972 18.3844 125.896 17.7517L124.882 19.4756ZM126.601 21.3418C127.014 22.1488 127.241 23.1521 127.241 24.3864H129.241C129.241 22.9085 128.969 21.5785 128.382 20.4309L126.601 21.3418ZM127.241 24.3864V35.5H129.241V24.3864H127.241ZM128.241 34.5H123.401V36.5H128.241V34.5ZM124.401 35.5V25.25H122.401V35.5H124.401ZM124.401 25.2571C124.409 24.0162 124.09 22.9086 123.317 22.0713L121.848 23.4287C122.18 23.7884 122.407 24.3475 122.401 25.2429L124.401 25.2571ZM123.321 22.0759C122.544 21.2243 121.493 20.8409 120.298 20.8409V22.8409C121.043 22.8409 121.515 23.0636 121.844 23.4241L123.321 22.0759ZM120.298 20.8409C119.499 20.8409 118.751 21.0141 118.082 21.3891L119.06 23.1336C119.391 22.948 119.794 22.8409 120.298 22.8409V20.8409ZM118.076 21.3923C117.405 21.7745 116.888 22.3307 116.525 23.0265L118.299 23.9508C118.497 23.5709 118.752 23.3088 119.066 23.1304L118.076 21.3923ZM116.523 23.0313C116.163 23.7311 116 24.5325 115.992 25.399L117.991 25.4192C117.998 24.7857 118.116 24.3068 118.301 23.946L116.523 23.0313ZM132.057 35.5H131.057V36.5H132.057V35.5ZM132.057 18.0455V17.0455H131.057V18.0455H132.057ZM136.898 18.0455H137.898V17.0455H136.898V18.0455ZM136.898 35.5V36.5H137.898V35.5H136.898ZM132.636 15.0795L131.946 15.8027L131.951 15.8079L131.957 15.8131L132.636 15.0795ZM132.636 11.625L133.321 12.3535L133.322 12.3532L132.636 11.625ZM136.33 11.625L135.639 12.3481L135.644 12.3534L135.65 12.3586L136.33 11.625ZM136.33 15.0795L137.015 15.8081L137.015 15.8077L136.33 15.0795ZM133.057 35.5V18.0455H131.057V35.5H133.057ZM132.057 19.0455H136.898V17.0455H132.057V19.0455ZM135.898 18.0455V35.5H137.898V18.0455H135.898ZM136.898 34.5H132.057V36.5H136.898V34.5ZM134.489 14.7955C134.014 14.7955 133.641 14.6473 133.316 14.346L131.957 15.8131C132.662 16.4663 133.524 16.7955 134.489 16.7955V14.7955ZM133.327 14.3564C133.008 14.0516 132.875 13.7296 132.875 13.3409H130.875C130.875 14.3007 131.25 15.1378 131.946 15.8027L133.327 14.3564ZM132.875 13.3409C132.875 12.9638 133.005 12.6514 133.321 12.3535L131.951 10.8965C131.253 11.5532 130.875 12.3847 130.875 13.3409H132.875ZM133.322 12.3532C133.648 12.0463 134.019 11.8977 134.489 11.8977V9.89773C133.519 9.89773 132.655 10.234 131.951 10.8968L133.322 12.3532ZM134.489 11.8977C134.958 11.8977 135.322 12.0459 135.639 12.3481L137.02 10.9019C136.321 10.2344 135.458 9.89773 134.489 9.89773V11.8977ZM135.65 12.3586C135.973 12.658 136.102 12.969 136.102 13.3409H138.102C138.102 12.3795 137.716 11.5466 137.009 10.8914L135.65 12.3586ZM136.102 13.3409C136.102 13.7245 135.97 14.045 135.644 14.3513L137.015 15.8077C137.72 15.1444 138.102 14.3058 138.102 13.3409H136.102ZM135.645 14.351C135.329 14.6476 134.963 14.7955 134.489 14.7955V16.7955C135.454 16.7955 136.315 16.466 137.015 15.8081L135.645 14.351ZM155.298 23.0227L155.36 24.0208L156.43 23.955L156.29 22.8918L155.298 23.0227ZM150.866 23.2955L149.886 23.4916L150.057 24.3472L150.928 24.2936L150.866 23.2955ZM150.378 22.2727L149.599 22.8998L149.606 22.9091L150.378 22.2727ZM149.389 21.5341L148.963 22.4385L148.973 22.4433L148.983 22.4479L149.389 21.5341ZM146.048 21.7273L146.565 22.5837L146.574 22.5781L146.048 21.7273ZM145.776 24.0341L145.122 24.7909L145.122 24.7909L145.776 24.0341ZM147.491 24.7273L147.281 25.705L147.294 25.7076L147.491 24.7273ZM150.651 25.3636L150.852 24.3841L150.848 24.3833L150.651 25.3636ZM154.446 27.0455L153.766 27.7787L153.766 27.7787L154.446 27.0455ZM154.685 33.1023L153.896 32.4869L153.893 32.4912L154.685 33.1023ZM151.935 35.125L152.315 36.0497L152.318 36.0484L151.935 35.125ZM142.401 34.3977L141.821 35.2127L141.826 35.2163L142.401 34.3977ZM140.003 30.4432L139.95 29.4446L138.86 29.5018L139.013 30.5827L140.003 30.4432ZM144.764 30.1932L145.744 29.993L145.572 29.1494L144.712 29.1946L144.764 30.1932ZM145.81 31.8068L145.252 32.6372L145.26 32.6424L145.81 31.8068ZM149.98 31.8636L150.515 32.7088L150.518 32.7068L149.98 31.8636ZM150.776 30.5795L151.775 30.594L151.776 30.5782L151.775 30.5623L150.776 30.5795ZM150.219 29.5L149.598 30.2841L149.608 30.292L150.219 29.5ZM148.537 28.8409L148.733 27.8603L148.732 27.8602L148.537 28.8409ZM145.514 28.2386L145.318 29.2192L145.319 29.2194L145.514 28.2386ZM141.707 26.4659L140.994 27.1666L140.997 27.1698L141.707 26.4659ZM141.378 20.3523L140.581 19.7487L140.577 19.7535L141.378 20.3523ZM143.957 18.4773L143.59 17.5471L143.588 17.5479L143.957 18.4773ZM153.071 19.2159L152.478 20.0211L152.48 20.0228L153.071 19.2159ZM155.237 22.0246L150.805 22.2973L150.928 24.2936L155.36 24.0208L155.237 22.0246ZM151.847 23.0993C151.738 22.5559 151.502 22.0644 151.149 21.6363L149.606 22.9091C149.753 23.0871 149.843 23.2774 149.886 23.4916L151.847 23.0993ZM151.157 21.6457C150.795 21.1967 150.332 20.8587 149.795 20.6203L148.983 22.4479C149.265 22.5732 149.46 22.7275 149.599 22.8997L151.157 21.6457ZM149.816 20.6297C149.251 20.3631 148.617 20.25 147.946 20.25V22.25C148.397 22.25 148.725 22.3263 148.963 22.4385L149.816 20.6297ZM147.946 20.25C147.055 20.25 146.23 20.4399 145.523 20.8765L146.574 22.5781C146.897 22.3783 147.337 22.25 147.946 22.25V20.25ZM145.532 20.8709C144.77 21.3301 144.276 22.0456 144.276 22.9773H146.276C146.276 22.8635 146.296 22.7457 146.565 22.5837L145.532 20.8709ZM144.276 22.9773C144.276 23.7029 144.583 24.3254 145.122 24.7909L146.429 23.2773C146.302 23.167 146.276 23.085 146.276 22.9773H144.276ZM145.122 24.7909C145.651 25.2479 146.428 25.5215 147.281 25.7049L147.702 23.7496C146.934 23.5846 146.567 23.396 146.429 23.2773L145.122 24.7909ZM147.294 25.7076L150.453 26.3439L150.848 24.3833L147.689 23.747L147.294 25.7076ZM150.449 26.3432C152.054 26.6727 153.12 27.1792 153.766 27.7787L155.126 26.3122C154.106 25.3662 152.641 24.7515 150.852 24.3841L150.449 26.3432ZM153.766 27.7787C154.372 28.3409 154.696 29.0787 154.696 30.0909H156.696C156.696 28.5879 156.186 27.2954 155.126 26.3122L153.766 27.7787ZM154.696 30.0909C154.696 31.0224 154.427 31.8072 153.896 32.4869L155.473 33.7176C156.291 32.6701 156.696 31.4473 156.696 30.0909H154.696ZM153.893 32.4912C153.349 33.1965 152.582 33.7729 151.551 34.2016L152.318 36.0484C153.62 35.5074 154.687 34.7353 155.476 33.7133L153.893 32.4912ZM151.554 34.2003C150.538 34.6186 149.334 34.8409 147.923 34.8409V36.8409C149.542 36.8409 151.013 36.5859 152.315 36.0497L151.554 34.2003ZM147.923 34.8409C145.742 34.8409 144.125 34.386 142.975 33.5791L141.826 35.2163C143.419 36.3337 145.483 36.8409 147.923 36.8409V34.8409ZM142.98 33.5828C141.842 32.7733 141.19 31.7001 140.993 30.3037L139.013 30.5827C139.286 32.5195 140.232 34.0827 141.821 35.2127L142.98 33.5828ZM140.055 31.4418L144.817 31.1918L144.712 29.1946L139.95 29.4446L140.055 31.4418ZM143.784 30.3933C143.976 31.3327 144.463 32.1071 145.252 32.6371L146.367 30.9765C146.05 30.7641 145.84 30.4628 145.744 29.993L143.784 30.3933ZM145.26 32.6424C146.019 33.1415 146.934 33.3523 147.935 33.3523V31.3523C147.208 31.3523 146.706 31.1994 146.359 30.9713L145.26 32.6424ZM147.935 33.3523C148.901 33.3523 149.788 33.168 150.515 32.7088L149.446 31.0184C149.142 31.2108 148.665 31.3523 147.935 31.3523V33.3523ZM150.518 32.7068C151.263 32.2314 151.762 31.5195 151.775 30.594L149.776 30.5651C149.774 30.685 149.742 30.8292 149.442 31.0205L150.518 32.7068ZM151.775 30.5623C151.762 29.8035 151.421 29.1643 150.829 28.708L149.608 30.292C149.744 30.3963 149.774 30.4768 149.776 30.5968L151.775 30.5623ZM150.839 28.716C150.295 28.2852 149.555 28.0247 148.733 27.8603L148.341 29.8215C149.034 29.9601 149.415 30.139 149.598 30.284L150.839 28.716ZM148.732 27.8602L145.71 27.2579L145.319 29.2194L148.342 29.8216L148.732 27.8602ZM145.71 27.2581C144.114 26.9389 143.06 26.4098 142.418 25.762L140.997 27.1698C142.022 28.2039 143.505 28.8566 145.318 29.2192L145.71 27.2581ZM142.421 25.7653C141.799 25.1319 141.469 24.3212 141.469 23.25H139.469C139.469 24.7848 139.964 26.1181 140.994 27.1666L142.421 25.7653ZM141.469 23.25C141.469 22.3201 141.716 21.5702 142.179 20.9511L140.577 19.7535C139.828 20.7556 139.469 21.9374 139.469 23.25H141.469ZM142.175 20.9558C142.661 20.3142 143.361 19.7902 144.327 19.4066L143.588 17.5479C142.342 18.0431 141.322 18.7692 140.581 19.7487L142.175 20.9558ZM144.324 19.4075C145.296 19.024 146.47 18.8182 147.866 18.8182V16.8182C146.278 16.8182 144.846 17.0517 143.59 17.5471L144.324 19.4075ZM147.866 18.8182C149.941 18.8182 151.442 19.2578 152.478 20.0211L153.664 18.4107C152.17 17.3104 150.201 16.8182 147.866 16.8182V18.8182ZM152.48 20.0228C153.526 20.7885 154.129 21.8099 154.307 23.1537L156.29 22.8918C156.043 21.0234 155.161 19.5069 153.662 18.409L152.48 20.0228ZM161.574 34.7614L161.032 35.6016L161.039 35.606L161.574 34.7614ZM159.028 31.7273L158.121 32.1476L158.124 32.1538L159.028 31.7273ZM159.062 21.8068L159.962 22.2437L159.963 22.2417L159.062 21.8068ZM161.631 18.8182L162.156 19.6692L162.157 19.6682L161.631 18.8182ZM167.608 18.3182L167.152 19.2085L167.165 19.2147L167.608 18.3182ZM169.199 19.5455L168.424 20.1774L168.429 20.1839L168.435 20.1903L169.199 19.5455ZM170.131 20.9773L169.219 21.3889L169.485 21.9773H170.131V20.9773ZM170.278 20.9773V21.9773H171.278V20.9773H170.278ZM170.278 12.2273V11.2273H169.278V12.2273H170.278ZM175.108 12.2273H176.108V11.2273H175.108V12.2273ZM175.108 35.5V36.5H176.108V35.5H175.108ZM170.335 35.5H169.335V36.5H170.335V35.5ZM170.335 32.7045H171.335V31.7045H170.335V32.7045ZM170.131 32.7045V31.7045H169.495L169.225 32.2801L170.131 32.7045ZM169.165 34.1477L168.411 33.4901L168.411 33.4909L169.165 34.1477ZM167.562 35.3182L167.136 34.4136L167.132 34.4155L167.562 35.3182ZM168.688 31.2955L169.307 32.0806L169.308 32.0795L168.688 31.2955ZM169.938 29.4886L169.003 29.1315L169 29.1395L169.938 29.4886ZM169.949 24.0682L170.885 23.716L170.885 23.716L169.949 24.0682ZM164.699 22.3182L164.078 21.5341L164.078 21.5341L164.699 22.3182ZM163.46 29.4659L162.519 29.804L162.523 29.815L163.46 29.4659ZM164.699 31.2841L164.066 32.0585L164.072 32.0634L164.078 32.0681L164.699 31.2841ZM165.176 34.7841C164.032 34.7841 163.018 34.4928 162.109 33.9167L161.039 35.606C162.281 36.3936 163.669 36.7841 165.176 36.7841V34.7841ZM162.116 33.9212C161.229 33.3484 160.495 32.4925 159.933 31.3007L158.124 32.1538C158.819 33.6287 159.783 34.7955 161.032 35.6016L162.116 33.9212ZM159.936 31.3069C159.392 30.1326 159.097 28.6413 159.097 26.7955H157.097C157.097 28.8436 157.423 30.6402 158.121 32.1476L159.936 31.3069ZM159.097 26.7955C159.097 24.8956 159.403 23.3937 159.962 22.2437L158.163 21.3699C157.434 22.8714 157.097 24.6953 157.097 26.7955H159.097ZM159.963 22.2417C160.539 21.0487 161.277 20.2114 162.156 19.6692L161.106 17.9671C159.848 18.7432 158.874 19.8983 158.162 21.3719L159.963 22.2417ZM162.157 19.6682C163.073 19.1008 164.068 18.8182 165.165 18.8182V16.8182C163.701 16.8182 162.34 17.2023 161.104 17.9682L162.157 19.6682ZM165.165 18.8182C166.035 18.8182 166.681 18.9673 167.152 19.2084L168.063 17.4279C167.232 17.0024 166.25 16.8182 165.165 16.8182V18.8182ZM167.165 19.2147C167.716 19.4869 168.126 19.812 168.424 20.1774L169.974 18.9135C169.469 18.2941 168.818 17.801 168.051 17.4217L167.165 19.2147ZM168.435 20.1903C168.797 20.6202 169.053 21.0201 169.219 21.3889L171.042 20.5657C170.784 19.995 170.419 19.4404 169.963 18.9006L168.435 20.1903ZM170.131 21.9773H170.278V19.9773H170.131V21.9773ZM171.278 20.9773V12.2273H169.278V20.9773H171.278ZM170.278 13.2273H175.108V11.2273H170.278V13.2273ZM174.108 12.2273V35.5H176.108V12.2273H174.108ZM175.108 34.5H170.335V36.5H175.108V34.5ZM171.335 35.5V32.7045H169.335V35.5H171.335ZM170.335 31.7045H170.131V33.7045H170.335V31.7045ZM169.225 32.2801C169.044 32.6667 168.778 33.0706 168.411 33.4901L169.918 34.8054C170.385 34.2703 170.763 33.7121 171.036 33.129L169.225 32.2801ZM168.411 33.4909C168.107 33.84 167.691 34.1521 167.136 34.4136L167.989 36.2228C168.752 35.8631 169.405 35.3948 169.919 34.8045L168.411 33.4909ZM167.132 34.4155C166.649 34.6458 166.01 34.7841 165.176 34.7841V36.7841C166.221 36.7841 167.173 36.6118 167.993 36.2208L167.132 34.4155ZM166.71 32.9318C167.682 32.9318 168.568 32.6631 169.307 32.0806L168.068 30.5103C167.731 30.7763 167.299 30.9318 166.71 30.9318V32.9318ZM169.308 32.0795C170.021 31.5148 170.535 30.7496 170.875 29.8377L169 29.1395C168.764 29.7731 168.444 30.2124 168.067 30.5114L169.308 32.0795ZM170.872 29.8458C171.22 28.9341 171.381 27.9028 171.381 26.7727H169.381C169.381 27.7184 169.246 28.4977 169.003 29.1315L170.872 29.8458ZM171.381 26.7727C171.381 25.6456 171.225 24.6195 170.885 23.716L169.013 24.4203C169.249 25.0471 169.381 25.8241 169.381 26.7727H171.381ZM170.885 23.716C170.544 22.8093 170.027 22.0514 169.306 21.5008L168.092 23.0901C168.462 23.3729 168.778 23.7967 169.013 24.4203L170.885 23.716ZM169.306 21.5008C168.563 20.933 167.678 20.6705 166.71 20.6705V22.6705C167.303 22.6705 167.744 22.8245 168.092 23.0901L169.306 21.5008ZM166.71 20.6705C165.723 20.6705 164.825 20.9428 164.078 21.5341L165.32 23.1022C165.663 22.83 166.106 22.6705 166.71 22.6705V20.6705ZM164.078 21.5341C163.365 22.0989 162.854 22.8614 162.521 23.7697L164.399 24.4576C164.627 23.8356 164.942 23.4011 165.32 23.1022L164.078 21.5341ZM162.521 23.7697C162.192 24.6676 162.04 25.6745 162.04 26.7727H164.04C164.04 25.8558 164.168 25.09 164.399 24.4576L162.521 23.7697ZM162.04 26.7727C162.04 27.8781 162.192 28.894 162.519 29.804L164.401 29.1278C164.168 28.4772 164.04 27.6976 164.04 26.7727H162.04ZM162.523 29.815C162.861 30.7227 163.367 31.4875 164.066 32.0585L165.332 30.5096C164.955 30.2019 164.635 29.7546 164.397 29.1168L162.523 29.815ZM164.078 32.0681C164.825 32.6595 165.723 32.9318 166.71 32.9318V30.9318C166.106 30.9318 165.663 30.7723 165.32 30.5L164.078 32.0681ZM182.395 34.7159L181.886 35.5766L181.892 35.5801L182.395 34.7159ZM179.429 31.5568L178.54 32.0139L178.541 32.016L179.429 31.5568ZM179.429 22.1136L180.317 22.5728L180.318 22.5708L179.429 22.1136ZM182.395 18.9545L182.9 19.8174L182.902 19.8165L182.395 18.9545ZM191.543 18.9545L191.033 19.8152L191.039 19.8187L191.543 18.9545ZM194.52 22.1136L193.63 22.5708L193.632 22.5728L194.52 22.1136ZM194.52 31.5568L195.408 32.016L195.409 32.0139L194.52 31.5568ZM191.543 34.7159L192.048 35.5788L192.05 35.5778L191.543 34.7159ZM189.009 31.4091L189.654 32.1729L189.66 32.1676L189.009 31.4091ZM190.224 29.5227L189.281 29.1904L189.278 29.1984L190.224 29.5227ZM190.224 24.0909L189.278 24.4152L189.281 24.4233L190.224 24.0909ZM184.952 22.2045L184.31 21.4372L184.305 21.4416L184.952 22.2045ZM183.713 24.0909L182.77 23.7585L182.767 23.7666L183.713 24.0909ZM183.713 29.5227L182.767 29.8471L182.77 29.8551L183.713 29.5227ZM184.952 31.4091L184.305 32.1721L184.311 32.1769L184.317 32.1816L184.952 31.4091ZM186.974 34.8409C185.353 34.8409 184.007 34.4976 182.898 33.8518L181.892 35.5801C183.358 36.4342 185.065 36.8409 186.974 36.8409V34.8409ZM182.904 33.8553C181.789 33.1953 180.93 32.283 180.317 31.0977L178.541 32.016C179.322 33.5276 180.44 34.7213 181.886 35.5765L182.904 33.8553ZM180.318 31.0997C179.706 29.9076 179.384 28.4972 179.384 26.8409H177.384C177.384 28.7604 177.758 30.4939 178.54 32.0139L180.318 31.0997ZM179.384 26.8409C179.384 25.1678 179.706 23.755 180.317 22.5728L178.541 21.6545C177.758 23.1692 177.384 24.908 177.384 26.8409H179.384ZM180.318 22.5708C180.931 21.3788 181.789 20.4686 182.9 19.8174L181.889 18.0917C180.44 18.9405 179.321 20.1364 178.54 21.6565L180.318 22.5708ZM182.902 19.8165C184.01 19.1645 185.355 18.8182 186.974 18.8182V16.8182C185.064 16.8182 183.355 17.2294 181.888 18.0926L182.902 19.8165ZM186.974 18.8182C188.594 18.8182 189.934 19.1646 191.033 19.8152L192.052 18.0939C190.591 17.2294 188.885 16.8182 186.974 16.8182V18.8182ZM191.039 19.8187C192.158 20.4703 193.019 21.3803 193.63 22.5708L195.409 21.6565C194.627 20.1348 193.503 18.9388 192.046 18.0904L191.039 19.8187ZM193.632 22.5728C194.243 23.755 194.565 25.1678 194.565 26.8409H196.565C196.565 24.908 196.191 23.1692 195.408 21.6545L193.632 22.5728ZM194.565 26.8409C194.565 28.4972 194.243 29.9076 193.63 31.0997L195.409 32.0139C196.191 30.4939 196.565 28.7604 196.565 26.8409H194.565ZM193.632 31.0977C193.02 32.2814 192.158 33.1936 191.036 33.854L192.05 35.5778C193.503 34.7231 194.626 33.5292 195.408 32.016L193.632 31.0977ZM191.037 33.8531C189.937 34.4976 188.596 34.8409 186.974 34.8409V36.8409C188.883 36.8409 190.588 36.4343 192.048 35.5788L191.037 33.8531ZM186.997 33.0909C188.001 33.0909 188.91 32.8012 189.654 32.1729L188.363 30.6453C188.031 30.9261 187.599 31.0909 186.997 31.0909V33.0909ZM189.66 32.1676C190.356 31.5696 190.851 30.7794 191.17 29.8471L189.278 29.1984C189.053 29.857 188.737 30.3243 188.357 30.6506L189.66 32.1676ZM191.168 29.8551C191.492 28.9336 191.645 27.9128 191.645 26.8068H189.645C189.645 27.7311 189.517 28.5209 189.281 29.1904L191.168 29.8551ZM191.645 26.8068C191.645 25.7008 191.492 24.68 191.168 23.7586L189.281 24.4233C189.517 25.0927 189.645 25.8825 189.645 26.8068H191.645ZM191.17 23.7666C190.851 22.8343 190.356 22.044 189.66 21.446L188.357 22.963C188.737 23.2893 189.053 23.7566 189.278 24.4152L191.17 23.7666ZM189.66 21.446C188.917 20.8074 188.006 20.5114 186.997 20.5114V22.5114C187.595 22.5114 188.024 22.6774 188.357 22.963L189.66 21.446ZM186.997 20.5114C185.983 20.5114 185.066 20.806 184.31 21.4372L185.593 22.9719C185.944 22.6789 186.39 22.5114 186.997 22.5114V20.5114ZM184.305 21.4416C183.602 22.0375 183.099 22.8261 182.77 23.7586L184.656 24.4233C184.888 23.7648 185.211 23.2958 185.598 22.9675L184.305 21.4416ZM182.767 23.7666C182.452 24.6855 182.304 25.7035 182.304 26.8068H184.304C184.304 25.8799 184.429 25.0872 184.659 24.4152L182.767 23.7666ZM182.304 26.8068C182.304 27.9102 182.452 28.9281 182.767 29.8471L184.659 29.1984C184.429 28.5264 184.304 27.7338 184.304 26.8068H182.304ZM182.77 29.8551C183.099 30.7876 183.602 31.5762 184.305 32.1721L185.598 30.6461C185.211 30.3178 184.888 29.8488 184.656 29.1904L182.77 29.8551ZM184.317 32.1816C185.072 32.8026 185.987 33.0909 186.997 33.0909V31.0909C186.386 31.0909 185.937 30.9247 185.587 30.6366L184.317 32.1816Z"
          fill="#171717" mask="url(#path-2-outside-1_2_6)"/>
</svg>
