<svg width="197" height="48" viewBox="0 0 197 48" fill="none" xmlns="http://www.w3.org/2000/svg">
<path d="M26.4486 8.21989L28.3001 6.39643C31.9358 2.81563 37.8548 2.727 41.5115 6.28717C42.8971 7.63918 43.8179 9.38471 44.1445 11.2786C44.4711 13.1724 44.1871 15.1195 43.3325 16.8462C42.9225 17.6711 42.7845 18.6014 42.9373 19.5073C43.0904 20.4133 43.5267 21.2495 44.1857 21.8993C45.3975 20.7031 46.3578 19.2835 47.0123 17.7216C47.6667 16.1597 48.0024 14.4862 48 12.7965C47.9974 11.1069 47.6572 9.43427 46.9982 7.87424C46.3392 6.31418 45.3746 4.89728 44.1595 3.7045C39.0463 -1.30304 30.7467 -1.20339 25.6478 3.81821L8.00046 21.1984L6.54969 19.7696C2.8523 16.128 2.82873 10.1756 6.59135 6.59878C7.98411 5.27888 9.7585 4.41726 11.6696 4.13285C13.5808 3.84844 15.5344 4.15526 17.261 5.01095C18.049 5.40868 18.9445 5.55096 19.8196 5.41748C20.6946 5.28399 21.5045 4.88158 22.1335 4.26769L22.1785 4.22361C22.1925 4.20992 22.2035 4.19362 22.2111 4.17566C22.2187 4.15772 22.2226 4.13847 22.2226 4.11904C22.2226 4.0996 22.2187 4.08035 22.2111 4.06241C22.2035 4.04448 22.1925 4.02818 22.1785 4.01446C19.7495 1.68235 16.4947 0.372413 13.1026 0.361822C9.71046 0.351234 6.4472 1.64082 4.00334 3.95772C-1.261 8.96292 -1.24219 17.2861 3.93192 22.382L21.574 39.7575L19.7 41.6033C16.0642 45.1841 10.145 45.2727 6.48851 41.7125C5.10294 40.3606 4.18218 38.615 3.85553 36.7212C3.5289 34.8274 3.81277 32.8803 4.66731 31.1535C5.07728 30.3286 5.21545 29.3983 5.06254 28.4925C4.90961 27.5865 4.47321 26.7502 3.81432 26.1005C2.60264 27.2967 1.64213 28.7162 0.987658 30.278C0.333185 31.84 -0.00241875 33.5134 1.31224e-05 35.2032C0.00244501 36.8928 0.342864 38.5655 1.00183 40.1254C1.6608 41.6856 2.6254 43.1025 3.84051 44.2952C8.95344 49.303 17.2534 49.2036 22.3522 44.1817L40.0224 26.7783L41.4787 28.2125C45.1144 31.7934 45.2044 37.6229 41.5896 41.2241C40.2169 42.589 38.4445 43.4957 36.5217 43.8176C34.5988 44.1393 32.6219 43.8596 30.8686 43.0178C30.0308 42.6138 29.0857 42.4776 28.1656 42.6286C27.2454 42.7794 26.396 43.2096 25.7363 43.8591C26.951 45.0525 28.3922 45.9986 29.978 46.6432C31.5639 47.2877 33.263 47.6183 34.9788 47.616C36.6943 47.6134 38.3926 47.2781 39.9765 46.6291C41.5606 45.9801 42.9992 45.03 44.2102 43.8333C49.2948 38.7976 49.1936 30.6231 44.095 25.6015L26.4486 8.21989ZM24.2084 37.1617L10.6356 23.794L23.8132 10.8157L37.3861 24.1834L24.2084 37.1617Z" fill="#059669"/>
<path d="M79.4091 23.8636C79.4091 26.4015 78.928 28.5606 77.9659 30.3409C77.0114 32.1212 75.7083 33.4811 74.0568 34.4205C72.4129 35.3523 70.5644 35.8182 68.5114 35.8182C66.4432 35.8182 64.5871 35.3485 62.9432 34.4091C61.2992 33.4697 60 32.1098 59.0455 30.3295C58.0909 28.5492 57.6136 26.3939 57.6136 23.8636C57.6136 21.3258 58.0909 19.1667 59.0455 17.3864C60 15.6061 61.2992 14.25 62.9432 13.3182C64.5871 12.3788 66.4432 11.9091 68.5114 11.9091C70.5644 11.9091 72.4129 12.3788 74.0568 13.3182C75.7083 14.25 77.0114 15.6061 77.9659 17.3864C78.928 19.1667 79.4091 21.3258 79.4091 23.8636ZM74.4205 23.8636C74.4205 22.2197 74.1742 20.8333 73.6818 19.7045C73.197 18.5758 72.5114 17.7197 71.625 17.1364C70.7386 16.553 69.7008 16.2614 68.5114 16.2614C67.322 16.2614 66.2841 16.553 65.3977 17.1364C64.5114 17.7197 63.822 18.5758 63.3295 19.7045C62.8447 20.8333 62.6023 22.2197 62.6023 23.8636C62.6023 25.5076 62.8447 26.8939 63.3295 28.0227C63.822 29.1515 64.5114 30.0076 65.3977 30.5909C66.2841 31.1742 67.322 31.4659 68.5114 31.4659C69.7008 31.4659 70.7386 31.1742 71.625 30.5909C72.5114 30.0076 73.197 29.1515 73.6818 28.0227C74.1742 26.8939 74.4205 25.5076 74.4205 23.8636ZM82.9631 35.5V18.0455H87.5767V21.125H87.7812C88.1449 20.1023 88.7509 19.2955 89.5994 18.7045C90.4479 18.1136 91.4631 17.8182 92.6449 17.8182C93.8419 17.8182 94.8608 18.1174 95.7017 18.7159C96.5426 19.3068 97.1032 20.1098 97.3835 21.125H97.5653C97.9214 20.125 98.5653 19.3258 99.4972 18.7273C100.437 18.1212 101.546 17.8182 102.827 17.8182C104.455 17.8182 105.777 18.3371 106.793 19.375C107.815 20.4053 108.327 21.8674 108.327 23.7614V35.5H103.497V24.7159C103.497 23.7462 103.24 23.0189 102.724 22.5341C102.209 22.0492 101.565 21.8068 100.793 21.8068C99.9138 21.8068 99.2282 22.0871 98.7358 22.6477C98.2434 23.2008 97.9972 23.9318 97.9972 24.8409V35.5H93.304V24.6136C93.304 23.7576 93.0578 23.0758 92.5653 22.5682C92.0805 22.0606 91.4403 21.8068 90.6449 21.8068C90.107 21.8068 89.6222 21.9432 89.1903 22.2159C88.7661 22.4811 88.429 22.8561 88.179 23.3409C87.929 23.8182 87.804 24.3788 87.804 25.0227V35.5H82.9631ZM116.991 25.4091V35.5H112.151V18.0455H116.764V21.125H116.969C117.355 20.1098 118.003 19.3068 118.912 18.7159C119.821 18.1174 120.923 17.8182 122.219 17.8182C123.431 17.8182 124.488 18.0833 125.389 18.6136C126.291 19.1439 126.991 19.9015 127.491 20.8864C127.991 21.8636 128.241 23.0303 128.241 24.3864V35.5H123.401V25.25C123.408 24.1818 123.135 23.3485 122.582 22.75C122.029 22.1439 121.268 21.8409 120.298 21.8409C119.647 21.8409 119.071 21.9811 118.571 22.2614C118.079 22.5417 117.692 22.9508 117.412 23.4886C117.139 24.0189 116.999 24.6591 116.991 25.4091ZM132.057 35.5V18.0455H136.898V35.5H132.057ZM134.489 15.7955C133.769 15.7955 133.152 15.5568 132.636 15.0795C132.129 14.5947 131.875 14.0152 131.875 13.3409C131.875 12.6742 132.129 12.1023 132.636 11.625C133.152 11.1402 133.769 10.8977 134.489 10.8977C135.208 10.8977 135.822 11.1402 136.33 11.625C136.845 12.1023 137.102 12.6742 137.102 13.3409C137.102 14.0152 136.845 14.5947 136.33 15.0795C135.822 15.5568 135.208 15.7955 134.489 15.7955ZM155.298 23.0227L150.866 23.2955C150.791 22.9167 150.628 22.5758 150.378 22.2727C150.128 21.9621 149.798 21.7159 149.389 21.5341C148.988 21.3447 148.507 21.25 147.946 21.25C147.196 21.25 146.563 21.4091 146.048 21.7273C145.533 22.0379 145.276 22.4545 145.276 22.9773C145.276 23.3939 145.442 23.7462 145.776 24.0341C146.109 24.322 146.681 24.553 147.491 24.7273L150.651 25.3636C152.348 25.7121 153.613 26.2727 154.446 27.0455C155.279 27.8182 155.696 28.8333 155.696 30.0909C155.696 31.2348 155.359 32.2386 154.685 33.1023C154.018 33.9659 153.101 34.6402 151.935 35.125C150.776 35.6023 149.438 35.8409 147.923 35.8409C145.613 35.8409 143.772 35.3598 142.401 34.3977C141.037 33.428 140.238 32.1098 140.003 30.4432L144.764 30.1932C144.908 30.8977 145.257 31.4356 145.81 31.8068C146.363 32.1705 147.071 32.3523 147.935 32.3523C148.783 32.3523 149.465 32.1894 149.98 31.8636C150.503 31.5303 150.768 31.1023 150.776 30.5795C150.768 30.1402 150.582 29.7803 150.219 29.5C149.855 29.2121 149.295 28.9924 148.537 28.8409L145.514 28.2386C143.81 27.8977 142.541 27.3068 141.707 26.4659C140.882 25.625 140.469 24.553 140.469 23.25C140.469 22.1288 140.772 21.1629 141.378 20.3523C141.991 19.5417 142.851 18.9167 143.957 18.4773C145.071 18.0379 146.374 17.8182 147.866 17.8182C150.071 17.8182 151.806 18.2841 153.071 19.2159C154.344 20.1477 155.086 21.4167 155.298 23.0227ZM165.176 35.7841C163.85 35.7841 162.65 35.4432 161.574 34.7614C160.506 34.072 159.657 33.0606 159.028 31.7273C158.407 30.3864 158.097 28.7424 158.097 26.7955C158.097 24.7955 158.419 23.1326 159.062 21.8068C159.706 20.4735 160.563 19.4773 161.631 18.8182C162.706 18.1515 163.884 17.8182 165.165 17.8182C166.142 17.8182 166.956 17.9848 167.608 18.3182C168.267 18.6439 168.797 19.053 169.199 19.5455C169.608 20.0303 169.919 20.5076 170.131 20.9773H170.278V12.2273H175.108V35.5H170.335V32.7045H170.131C169.903 33.1894 169.581 33.6705 169.165 34.1477C168.756 34.6174 168.222 35.0076 167.562 35.3182C166.911 35.6288 166.116 35.7841 165.176 35.7841ZM166.71 31.9318C167.491 31.9318 168.15 31.7197 168.688 31.2955C169.233 30.8636 169.65 30.2614 169.938 29.4886C170.233 28.7159 170.381 27.8106 170.381 26.7727C170.381 25.7348 170.237 24.8333 169.949 24.0682C169.661 23.303 169.244 22.7121 168.699 22.2955C168.153 21.8788 167.491 21.6705 166.71 21.6705C165.915 21.6705 165.244 21.8864 164.699 22.3182C164.153 22.75 163.741 23.3485 163.46 24.1136C163.18 24.8788 163.04 25.7652 163.04 26.7727C163.04 27.7879 163.18 28.6856 163.46 29.4659C163.748 30.2386 164.161 30.8447 164.699 31.2841C165.244 31.7159 165.915 31.9318 166.71 31.9318ZM186.974 35.8409C185.209 35.8409 183.683 35.4659 182.395 34.7159C181.115 33.9583 180.126 32.9053 179.429 31.5568C178.732 30.2008 178.384 28.6288 178.384 26.8409C178.384 25.0379 178.732 23.4621 179.429 22.1136C180.126 20.7576 181.115 19.7045 182.395 18.9545C183.683 18.197 185.209 17.8182 186.974 17.8182C188.74 17.8182 190.262 18.197 191.543 18.9545C192.83 19.7045 193.823 20.7576 194.52 22.1136C195.217 23.4621 195.565 25.0379 195.565 26.8409C195.565 28.6288 195.217 30.2008 194.52 31.5568C193.823 32.9053 192.83 33.9583 191.543 34.7159C190.262 35.4659 188.74 35.8409 186.974 35.8409ZM186.997 32.0909C187.8 32.0909 188.471 31.8636 189.009 31.4091C189.546 30.947 189.952 30.3182 190.224 29.5227C190.505 28.7273 190.645 27.822 190.645 26.8068C190.645 25.7917 190.505 24.8864 190.224 24.0909C189.952 23.2955 189.546 22.6667 189.009 22.2045C188.471 21.7424 187.8 21.5114 186.997 21.5114C186.187 21.5114 185.505 21.7424 184.952 22.2045C184.406 22.6667 183.993 23.2955 183.713 24.0909C183.44 24.8864 183.304 25.7917 183.304 26.8068C183.304 27.822 183.44 28.7273 183.713 29.5227C183.993 30.3182 184.406 30.947 184.952 31.4091C185.505 31.8636 186.187 32.0909 186.997 32.0909Z" fill="#FAFAFA"/>
</svg>
